G04*
G04 #@! TF.GenerationSoftware,Altium Limited,Altium Designer,26.3.0 (6)*
G04*
G04 Layer_Color=65535*
%FSLAX44Y44*%
%MOMM*%
G71*
G04*
G04 #@! TF.SameCoordinates,0408E89E-C53A-4377-B3AB-E061E58A1743*
G04*
G04*
G04 #@! TF.FilePolarity,Positive*
G04*
G01*
G75*
%ADD10C,0.2500*%
%ADD11C,0.2000*%
%ADD12C,0.1270*%
%ADD13C,0.2540*%
D10*
X45450Y159950D02*
G03*
X45450Y159950I-1250J0D01*
G01*
X1023059Y726165D02*
G03*
X1023059Y726165I-1250J0D01*
G01*
X19360Y381820D02*
G03*
X19360Y381820I-1250J0D01*
G01*
X146300Y400050D02*
G03*
X146300Y400050I-1250J0D01*
G01*
X80260Y916940D02*
G03*
X80260Y916940I-1250J0D01*
G01*
D11*
X485490Y392430D02*
G03*
X485490Y392430I-1000J0D01*
G01*
X51800Y690212D02*
G03*
X51800Y690212I-1000J0D01*
G01*
X6425Y283210D02*
X9475D01*
Y290830D01*
X6425D02*
X9475D01*
X6425Y283210D02*
Y290830D01*
Y179070D02*
X9475D01*
Y186690D01*
X6425D02*
X9475D01*
X6425Y179070D02*
Y186690D01*
X9450Y164950D02*
X79450D01*
Y304950D01*
X9450D02*
X79450D01*
X9450Y164950D02*
Y304950D01*
X1037710Y489266D02*
Y720165D01*
X1005909Y489266D02*
X1037710D01*
X1005909D02*
Y720165D01*
X1037710D01*
X1005909Y693616D02*
X1037710D01*
X25860Y332570D02*
X83360D01*
Y406570D01*
X25860D02*
X30610D01*
X49110D02*
X83360D01*
X25860Y332570D02*
Y406570D01*
X151750Y386700D02*
Y413400D01*
Y386700D02*
X203850D01*
Y413400D01*
X151750D02*
X203850D01*
X85710Y903590D02*
Y930290D01*
Y903590D02*
X137810D01*
Y930290D01*
X85710D02*
X137810D01*
D12*
X478790Y367030D02*
Y900430D01*
X250190D02*
X478790D01*
X250190Y367030D02*
Y900430D01*
Y367030D02*
X478790D01*
X25400Y481330D02*
Y684530D01*
X228600Y481330D02*
Y684530D01*
X62000Y481330D02*
X192000D01*
X62000Y684530D02*
X192000D01*
X25400D02*
X38100D01*
X215900D02*
X228600D01*
X25400Y481330D02*
X38100D01*
X215900D02*
X228600D01*
X514590Y751130D02*
Y796130D01*
X544590Y751130D02*
Y796130D01*
X514590D02*
X544590D01*
X514590Y751130D02*
X544590D01*
D13*
X17019Y327343D02*
X14479Y329882D01*
X9401D01*
X6862Y327343D01*
Y324804D01*
X9401Y322265D01*
X14479D01*
X17019Y319725D01*
Y317186D01*
X14479Y314647D01*
X9401D01*
X6862Y317186D01*
X22097Y329882D02*
Y314647D01*
X27175Y319725D01*
X32254Y314647D01*
Y329882D01*
X37332Y314647D02*
X42410D01*
X39871D01*
Y329882D01*
X37332Y327343D01*
X249940Y926020D02*
Y913324D01*
X252479Y910785D01*
X257557D01*
X260096Y913324D01*
Y926020D01*
X275332Y910785D02*
X265175D01*
X275332Y920942D01*
Y923481D01*
X272792Y926020D01*
X267714D01*
X265175Y923481D01*
X25150Y714946D02*
Y702250D01*
X27689Y699711D01*
X32767D01*
X35306Y702250D01*
Y714946D01*
X40385Y699711D02*
X45463D01*
X42924D01*
Y714946D01*
X40385Y712407D01*
X524510Y819087D02*
X521971Y821626D01*
X516893D01*
X514354Y819087D01*
Y808930D01*
X516893Y806391D01*
X521971D01*
X524510Y808930D01*
X529589Y806391D02*
X534667D01*
X532128D01*
Y821626D01*
X529589Y819087D01*
X145038Y423105D02*
Y438340D01*
X152655D01*
X155195Y435801D01*
Y430723D01*
X152655Y428184D01*
X145038D01*
X150116D02*
X155195Y423105D01*
X160273D02*
Y438340D01*
X165351Y433262D01*
X170430Y438340D01*
Y423105D01*
X78998Y955230D02*
Y939995D01*
X89155D01*
X94233D02*
Y955230D01*
X99311Y950152D01*
X104390Y955230D01*
Y939995D01*
X1053037Y756587D02*
X1058115D01*
X1055576D01*
Y741352D01*
X1053037D01*
X1058115D01*
X1065733D02*
Y756587D01*
X1073351D01*
X1075890Y754048D01*
Y748969D01*
X1073351Y746430D01*
X1065733D01*
X1070811D02*
X1075890Y741352D01*
X18038Y431482D02*
Y416247D01*
X25655D01*
X28194Y418786D01*
Y421325D01*
X25655Y423865D01*
X18038D01*
X25655D01*
X28194Y426404D01*
Y428943D01*
X25655Y431482D01*
X18038D01*
X33273D02*
X43430D01*
X38351D01*
Y416247D01*
M02*
