M48
;Layer_Color=9474304
;FILE_FORMAT=4:4
METRIC,LZ
;TYPE=PLATED
T01F00S00C0.8000
T02F00S00C0.8100
T03F00S00C1.0000
T04F00S00C1.0200
T05F00S00C1.3200
T06F00S00C1.6000
T07F00S00C3.2000
T08F00S00C7.0000
;TYPE=NON_PLATED
T09F00S00C1.1000
%
T01
X0052959Y0076113
Y0078613
T02
X0102181Y00503116
Y00528516
Y00553916
Y00604716
Y00630116
Y00655516
Y00680916
Y00706316
T03
X0102181Y00579316
X0044069Y0057023
Y0059563
Y0062103
Y0054483
Y0051943
Y0049403
Y0046863
Y0044323
Y0041783
Y0039243
X0028829
Y0041783
Y0044323
Y0046863
Y0049403
Y0051943
Y0054483
Y0057023
Y0059563
Y0062103
X0005986Y0038207
Y0035707
X0028829Y0064643
Y0067183
Y0069723
Y0072263
Y0074803
Y0077343
Y0079883
Y0082423
Y0084963
Y0087503
X0044069
Y0084963
Y0082423
Y0079883
Y0077343
Y0074803
Y0072263
Y0069723
Y0067183
Y0064643
T04
X001651Y0040005
X001905
X0012446Y0091694
X0009906
T05
X000508Y0049403
Y0051943
Y0054483
Y0057023
Y0059563
Y0062103
X002032
Y0059563
Y0057023
Y0054483
Y0051943
Y0049403
Y0064643
Y0067183
X000508
Y0064643
T06
X0004445Y0018795
Y0023495
Y0028195
T07
X0009525Y001397
X0091313Y0047625
Y0075057
X0009525Y0105537
T08
X00247029Y0009643
X00254Y0109728
T09
X0003986Y0039807
M30
