G04*
G04 #@! TF.GenerationSoftware,Altium Limited,Altium Designer,26.3.0 (6)*
G04*
G04 Layer_Physical_Order=2*
G04 Layer_Color=16711680*
%FSLAX44Y44*%
%MOMM*%
G71*
G04*
G04 #@! TF.SameCoordinates,0408E89E-C53A-4377-B3AB-E061E58A1743*
G04*
G04*
G04 #@! TF.FilePolarity,Positive*
G04*
G01*
G75*
%ADD13C,0.2540*%
%ADD14C,2.4500*%
%ADD15R,2.4500X2.4500*%
%ADD18O,1.7926X1.3100*%
%ADD19O,1.7786X1.2960*%
%ADD20R,1.7926X1.3100*%
%ADD25O,1.7786X1.5500*%
%ADD26C,1.1000*%
%ADD27R,1.5500X1.5500*%
%ADD28C,1.5700*%
%ADD29R,1.5700X1.5700*%
%ADD30R,1.5240X1.5240*%
%ADD31C,1.5240*%
%ADD32O,2.5400X1.5080*%
%ADD33R,2.5400X1.5080*%
%ADD34O,3.0480X1.9800*%
%ADD35C,1.1500*%
%ADD36C,0.4000*%
%ADD37C,0.5000*%
G36*
X1087120Y1223645D02*
Y-1905D01*
X1024890D01*
Y403020D01*
X1023436Y404473D01*
X557551D01*
X557530Y404495D01*
X491490Y338455D01*
Y635D01*
X490220Y-635D01*
X1270D01*
Y1224915D01*
X491490D01*
X495300Y1221105D01*
Y880745D01*
X570230Y805815D01*
X1031240D01*
Y1223645D01*
X1032510Y1224915D01*
X1085850D01*
X1087120Y1223645D01*
D02*
G37*
%LPC*%
G36*
X45910Y1219390D02*
X12796D01*
Y1116159D01*
X45910D01*
Y1219390D01*
D02*
G37*
G36*
X257069Y1136280D02*
X250931D01*
X244867Y1135320D01*
X239029Y1133423D01*
X233560Y1130636D01*
X228593Y1127028D01*
X224252Y1122687D01*
X220644Y1117720D01*
X217857Y1112251D01*
X215960Y1106413D01*
X215000Y1100349D01*
Y1094211D01*
X215960Y1088148D01*
X217857Y1082309D01*
X220644Y1076840D01*
X224252Y1071873D01*
X228593Y1067533D01*
X233560Y1063924D01*
X239029Y1061137D01*
X244867Y1059240D01*
X250931Y1058280D01*
X257069D01*
X263132Y1059240D01*
X268971Y1061137D01*
X274440Y1063924D01*
X279407Y1067533D01*
X283748Y1071873D01*
X287356Y1076840D01*
X290143Y1082309D01*
X292040Y1088148D01*
X293000Y1094211D01*
Y1100349D01*
X292040Y1106413D01*
X290143Y1112251D01*
X287356Y1117720D01*
X283748Y1122687D01*
X279407Y1127028D01*
X274440Y1130636D01*
X268971Y1133423D01*
X263132Y1135320D01*
X257069Y1136280D01*
D02*
G37*
G36*
X97220Y1075370D02*
X93280D01*
X89416Y1074601D01*
X85777Y1073094D01*
X82501Y1070905D01*
X79715Y1068119D01*
X77526Y1064844D01*
X76019Y1061204D01*
X75250Y1057340D01*
Y1053400D01*
X76019Y1049536D01*
X77526Y1045897D01*
X79715Y1042621D01*
X82501Y1039835D01*
X85777Y1037646D01*
X89416Y1036139D01*
X93280Y1035370D01*
X97220D01*
X101084Y1036139D01*
X104724Y1037646D01*
X107999Y1039835D01*
X110785Y1042621D01*
X112974Y1045897D01*
X114481Y1049536D01*
X115250Y1053400D01*
Y1057340D01*
X114481Y1061204D01*
X112974Y1064844D01*
X110785Y1068119D01*
X107999Y1070905D01*
X104724Y1073094D01*
X101084Y1074601D01*
X97220Y1075370D01*
D02*
G37*
G36*
X126020Y928790D02*
X122900D01*
X119886Y927982D01*
X117184Y926422D01*
X114978Y924216D01*
X114410Y923233D01*
X110910Y924171D01*
Y928790D01*
X87210D01*
Y905090D01*
X92943D01*
Y618484D01*
X80737Y606279D01*
X67296D01*
X66092Y609645D01*
X66160Y609874D01*
X66784Y610386D01*
X68656Y612667D01*
X70047Y615270D01*
X70903Y618093D01*
X71005Y619125D01*
X50800D01*
X30595D01*
X30697Y618093D01*
X31553Y615270D01*
X32944Y612667D01*
X34816Y610386D01*
X35440Y609874D01*
X35601Y605671D01*
X35454Y605424D01*
X33318Y602640D01*
X31918Y599259D01*
X31440Y595630D01*
X31918Y592001D01*
X33318Y588620D01*
X35546Y585716D01*
X36303Y585136D01*
Y580724D01*
X35546Y580144D01*
X33318Y577240D01*
X31918Y573859D01*
X31440Y570230D01*
X31918Y566601D01*
X33318Y563220D01*
X35546Y560316D01*
X36303Y559736D01*
Y555324D01*
X35546Y554744D01*
X33318Y551840D01*
X31918Y548459D01*
X31440Y544830D01*
X31918Y541201D01*
X33318Y537820D01*
X35546Y534916D01*
X36303Y534336D01*
Y529924D01*
X35546Y529344D01*
X33318Y526440D01*
X31918Y523059D01*
X31440Y519430D01*
X31918Y515801D01*
X33318Y512420D01*
X35454Y509636D01*
X35601Y509389D01*
X35440Y505186D01*
X34816Y504674D01*
X32944Y502393D01*
X31553Y499790D01*
X30697Y496967D01*
X30595Y495935D01*
X50800D01*
Y494030D01*
X52705D01*
Y478978D01*
X56140D01*
X59077Y479267D01*
X61900Y480123D01*
X64503Y481514D01*
X66784Y483386D01*
X68656Y485667D01*
X70047Y488270D01*
X70903Y491093D01*
X71105Y493144D01*
X73307Y494341D01*
X74659Y494539D01*
X154436Y414763D01*
X153250Y411900D01*
X153250D01*
Y388200D01*
X176950D01*
Y392819D01*
X180450Y393757D01*
X181018Y392774D01*
X183224Y390568D01*
X185926Y389008D01*
X188940Y388200D01*
X192060D01*
X195074Y389008D01*
X197776Y390568D01*
X199982Y392774D01*
X201542Y395476D01*
X202350Y398490D01*
Y401610D01*
X201542Y404624D01*
X199982Y407326D01*
X197776Y409532D01*
X196618Y410201D01*
Y414020D01*
X196152Y416361D01*
X194826Y418346D01*
X69948Y543223D01*
X70160Y544830D01*
X69682Y548459D01*
X68282Y551840D01*
X66054Y554744D01*
X65297Y555324D01*
Y559736D01*
X66054Y560316D01*
X68282Y563220D01*
X69682Y566601D01*
X69951Y568644D01*
X99781D01*
X102122Y569110D01*
X104107Y570436D01*
X128786Y595115D01*
X130112Y597099D01*
X130578Y599440D01*
Y906789D01*
X131736Y907458D01*
X133943Y909664D01*
X135503Y912366D01*
X136310Y915380D01*
Y918500D01*
X135503Y921514D01*
X133943Y924216D01*
X131736Y926422D01*
X129034Y927982D01*
X126020Y928790D01*
D02*
G37*
G36*
X445850Y887759D02*
X442595D01*
Y876935D01*
X458328D01*
X458145Y878325D01*
X456874Y881395D01*
X454851Y884031D01*
X452214Y886053D01*
X449145Y887325D01*
X445850Y887759D01*
D02*
G37*
G36*
X412750Y970048D02*
X83820D01*
X81479Y969582D01*
X79494Y968256D01*
X43920Y932681D01*
X42594Y930697D01*
X42128Y928355D01*
Y685411D01*
X41831Y685372D01*
X38450Y683972D01*
X35546Y681744D01*
X33318Y678840D01*
X31918Y675459D01*
X31440Y671830D01*
X31918Y668201D01*
X33318Y664820D01*
X35546Y661916D01*
X36303Y661336D01*
X36447Y660753D01*
X35386Y657627D01*
X21125D01*
X18784Y657162D01*
X16799Y655836D01*
X12184Y651221D01*
X10858Y649236D01*
X10393Y646895D01*
X10392Y284480D01*
X10858Y282139D01*
X12184Y280154D01*
X14714Y277624D01*
X16699Y276298D01*
X19040Y275833D01*
X29395D01*
X30049Y274253D01*
X31828Y271591D01*
X34091Y269328D01*
X36753Y267549D01*
X39710Y266325D01*
X42849Y265700D01*
X46051D01*
X49190Y266325D01*
X52147Y267549D01*
X54809Y269328D01*
X57072Y271591D01*
X58851Y274253D01*
X60075Y277210D01*
X60700Y280350D01*
Y283550D01*
X60075Y286690D01*
X58851Y289647D01*
X57072Y292309D01*
X54809Y294572D01*
X52147Y296351D01*
X49190Y297575D01*
X46051Y298200D01*
X42849D01*
X39710Y297575D01*
X36753Y296351D01*
X34091Y294572D01*
X31828Y292309D01*
X30049Y289647D01*
X29395Y288067D01*
X22627D01*
X22627Y644361D01*
X23659Y645393D01*
X31577D01*
X31918Y642801D01*
X33318Y639420D01*
X35454Y636636D01*
X35601Y636389D01*
X35440Y632186D01*
X34816Y631674D01*
X32944Y629393D01*
X31553Y626790D01*
X30697Y623967D01*
X30595Y622935D01*
X50800D01*
X71005D01*
X70903Y623967D01*
X70047Y626790D01*
X68656Y629393D01*
X66784Y631674D01*
X66160Y632186D01*
X65999Y636389D01*
X66146Y636636D01*
X68282Y639420D01*
X69682Y642801D01*
X70160Y646430D01*
X69682Y650059D01*
X68282Y653440D01*
X66054Y656344D01*
X65297Y656924D01*
Y661336D01*
X66054Y661916D01*
X68282Y664820D01*
X69682Y668201D01*
X70160Y671830D01*
X69682Y675459D01*
X68282Y678840D01*
X66054Y681744D01*
X63150Y683972D01*
X59769Y685372D01*
X56140Y685850D01*
X54363D01*
Y925822D01*
X86354Y957812D01*
X410216D01*
X412982Y955046D01*
Y840543D01*
X413448Y838202D01*
X414774Y836217D01*
X424225Y826767D01*
X423890Y824230D01*
X424287Y821217D01*
X425450Y818410D01*
X427300Y816000D01*
X429710Y814150D01*
X431691Y813329D01*
X431746Y813111D01*
Y809949D01*
X431691Y809731D01*
X429710Y808910D01*
X427300Y807060D01*
X425450Y804650D01*
X424287Y801842D01*
X423890Y798830D01*
X424287Y795817D01*
X425450Y793010D01*
X427300Y790600D01*
X429710Y788750D01*
X431691Y787930D01*
X431746Y787711D01*
Y784549D01*
X431691Y784331D01*
X429710Y783510D01*
X427300Y781660D01*
X425450Y779250D01*
X424287Y776442D01*
X423890Y773430D01*
X424287Y770417D01*
X425450Y767610D01*
X427300Y765200D01*
X429710Y763350D01*
X431691Y762530D01*
X431746Y762311D01*
Y759149D01*
X431691Y758931D01*
X429710Y758110D01*
X427300Y756260D01*
X425450Y753850D01*
X424287Y751042D01*
X423890Y748030D01*
X424287Y745017D01*
X425450Y742210D01*
X427300Y739800D01*
X429710Y737950D01*
X431691Y737130D01*
X431746Y736911D01*
Y733749D01*
X431691Y733531D01*
X429710Y732710D01*
X427300Y730860D01*
X425450Y728450D01*
X424287Y725642D01*
X423890Y722630D01*
X424287Y719617D01*
X425450Y716810D01*
X427300Y714400D01*
X429710Y712550D01*
X431691Y711730D01*
X431746Y711511D01*
Y708349D01*
X431691Y708130D01*
X429710Y707310D01*
X427300Y705460D01*
X425450Y703050D01*
X424287Y700242D01*
X423890Y697230D01*
X424287Y694218D01*
X425450Y691410D01*
X427300Y689000D01*
X429710Y687150D01*
X431691Y686329D01*
X431746Y686111D01*
Y682949D01*
X431691Y682730D01*
X429710Y681910D01*
X427300Y680060D01*
X425450Y677650D01*
X424287Y674843D01*
X423890Y671830D01*
X424287Y668818D01*
X425450Y666010D01*
X427300Y663600D01*
X429710Y661750D01*
X431691Y660929D01*
X431746Y660711D01*
Y657549D01*
X431691Y657330D01*
X429710Y656510D01*
X427300Y654660D01*
X425450Y652250D01*
X424287Y649443D01*
X423890Y646430D01*
X424287Y643418D01*
X425450Y640610D01*
X427300Y638200D01*
X429710Y636350D01*
X431691Y635530D01*
X431746Y635311D01*
Y632149D01*
X431691Y631931D01*
X429710Y631110D01*
X427300Y629260D01*
X425450Y626850D01*
X424287Y624043D01*
X423890Y621030D01*
X424287Y618018D01*
X425450Y615210D01*
X427300Y612800D01*
X429710Y610950D01*
X431691Y610130D01*
X431746Y609911D01*
Y606749D01*
X431691Y606530D01*
X429710Y605710D01*
X427300Y603860D01*
X425450Y601450D01*
X424287Y598643D01*
X423890Y595630D01*
X424287Y592617D01*
X425450Y589810D01*
X427300Y587400D01*
X429710Y585550D01*
X431691Y584729D01*
X431746Y584511D01*
Y581349D01*
X431691Y581130D01*
X429710Y580310D01*
X427300Y578460D01*
X425450Y576050D01*
X424287Y573242D01*
X423890Y570230D01*
X424287Y567217D01*
X425450Y564410D01*
X427300Y562000D01*
X429710Y560150D01*
X431691Y559329D01*
X431746Y559111D01*
Y555949D01*
X431691Y555731D01*
X429710Y554910D01*
X427300Y553060D01*
X425450Y550650D01*
X424287Y547842D01*
X423890Y544830D01*
X424287Y541818D01*
X425450Y539010D01*
X427300Y536600D01*
X429710Y534750D01*
X431691Y533929D01*
X431746Y533711D01*
Y530549D01*
X431691Y530331D01*
X429710Y529510D01*
X427300Y527660D01*
X425450Y525250D01*
X424287Y522443D01*
X423890Y519430D01*
X424287Y516418D01*
X425450Y513610D01*
X427300Y511200D01*
X429710Y509350D01*
X431691Y508530D01*
X431746Y508311D01*
Y505149D01*
X431691Y504930D01*
X429710Y504110D01*
X427300Y502260D01*
X425450Y499850D01*
X424287Y497043D01*
X423890Y494030D01*
X424287Y491017D01*
X425450Y488210D01*
X427300Y485800D01*
X429710Y483950D01*
X431691Y483130D01*
X431746Y482911D01*
Y479749D01*
X431691Y479530D01*
X429710Y478710D01*
X427300Y476860D01*
X425450Y474450D01*
X424287Y471642D01*
X423890Y468630D01*
X424287Y465617D01*
X425450Y462810D01*
X427300Y460400D01*
X429710Y458550D01*
X431691Y457729D01*
X431746Y457511D01*
Y454349D01*
X431691Y454131D01*
X429710Y453310D01*
X427300Y451460D01*
X425450Y449050D01*
X424287Y446242D01*
X423890Y443230D01*
X424287Y440218D01*
X425450Y437410D01*
X427300Y435000D01*
X429710Y433150D01*
X431691Y432329D01*
X431746Y432111D01*
Y428949D01*
X431691Y428731D01*
X429710Y427910D01*
X427300Y426060D01*
X425450Y423650D01*
X424287Y420843D01*
X423890Y417830D01*
X424287Y414818D01*
X425450Y412010D01*
X427300Y409600D01*
X429710Y407750D01*
X430386Y407470D01*
X429690Y403970D01*
X423990D01*
Y382998D01*
X423990Y380890D01*
X421067Y379497D01*
X301118D01*
X300114Y382998D01*
X301680Y384200D01*
X303530Y386610D01*
X304693Y389417D01*
X305090Y392430D01*
X304693Y395443D01*
X303530Y398250D01*
X301680Y400660D01*
X299270Y402510D01*
X298929Y402651D01*
Y406440D01*
X299814Y406806D01*
X302451Y408829D01*
X304473Y411465D01*
X305745Y414535D01*
X305928Y415925D01*
X270652D01*
X270835Y414535D01*
X272106Y411465D01*
X274129Y408829D01*
X276766Y406806D01*
X277651Y406440D01*
Y402651D01*
X277310Y402510D01*
X274900Y400660D01*
X273050Y398250D01*
X271887Y395443D01*
X271490Y392430D01*
X271887Y389417D01*
X273050Y386610D01*
X274900Y384200D01*
X277310Y382350D01*
X280117Y381187D01*
X282173Y380916D01*
Y375723D01*
X282638Y373382D01*
X283964Y371397D01*
X286307Y369054D01*
X288292Y367728D01*
X290633Y367262D01*
X472637D01*
X474978Y367728D01*
X476963Y369054D01*
X536131Y428223D01*
X1061720D01*
X1064061Y428688D01*
X1066046Y430014D01*
X1070585Y434554D01*
X1071912Y436539D01*
X1072377Y438880D01*
Y703972D01*
X1071912Y706313D01*
X1070585Y708298D01*
X1068242Y710641D01*
X1066257Y711967D01*
X1063916Y712433D01*
X1034773D01*
Y716866D01*
X1008847D01*
Y695766D01*
X1016278D01*
X1016508Y692266D01*
X1016361Y692246D01*
X1013531Y691074D01*
X1011102Y689210D01*
X1009238Y686781D01*
X1008066Y683952D01*
X1007917Y682821D01*
X1021810D01*
X1035702D01*
X1035553Y683952D01*
X1034381Y686781D01*
X1032517Y689210D01*
X1030088Y691074D01*
X1027259Y692246D01*
X1027112Y692266D01*
X1027341Y695766D01*
X1034773D01*
Y700198D01*
X1060142D01*
Y441413D01*
X1059186Y440458D01*
X533597D01*
X531256Y439992D01*
X529271Y438666D01*
X470103Y379497D01*
X460313D01*
X457390Y380890D01*
X457390Y382998D01*
Y403970D01*
X451690D01*
X450994Y407470D01*
X451670Y407750D01*
X454080Y409600D01*
X455930Y412010D01*
X457093Y414818D01*
X457490Y417830D01*
X457093Y420843D01*
X455930Y423650D01*
X454080Y426060D01*
X451670Y427910D01*
X449689Y428731D01*
X449634Y428949D01*
Y432111D01*
X449689Y432329D01*
X451670Y433150D01*
X454080Y435000D01*
X455930Y437410D01*
X457093Y440218D01*
X457490Y443230D01*
X457093Y446242D01*
X455930Y449050D01*
X454080Y451460D01*
X451670Y453310D01*
X449689Y454131D01*
X449634Y454349D01*
Y457511D01*
X449689Y457729D01*
X451670Y458550D01*
X454080Y460400D01*
X455930Y462810D01*
X457093Y465617D01*
X457490Y468630D01*
X457093Y471642D01*
X455930Y474450D01*
X454080Y476860D01*
X451670Y478710D01*
X449689Y479530D01*
X449634Y479749D01*
Y482911D01*
X449689Y483130D01*
X451670Y483950D01*
X454080Y485800D01*
X455702Y487912D01*
X542290D01*
X544631Y488378D01*
X546616Y489704D01*
X604710Y547798D01*
X1010793D01*
X1011872Y546391D01*
X1014076Y544700D01*
X1016643Y543637D01*
X1019397Y543275D01*
X1024223D01*
X1026977Y543637D01*
X1029543Y544700D01*
X1031747Y546391D01*
X1033438Y548595D01*
X1034501Y551162D01*
X1034864Y553916D01*
X1034501Y556670D01*
X1033438Y559236D01*
X1031747Y561440D01*
X1029543Y563131D01*
X1026977Y564194D01*
X1024223Y564557D01*
X1019397D01*
X1016643Y564194D01*
X1014076Y563131D01*
X1011872Y561440D01*
X1010793Y560033D01*
X602176D01*
X599835Y559568D01*
X597850Y558241D01*
X539756Y500148D01*
X455702D01*
X454080Y502260D01*
X451670Y504110D01*
X449689Y504930D01*
X449634Y505149D01*
Y508311D01*
X449689Y508530D01*
X451670Y509350D01*
X454080Y511200D01*
X455702Y513312D01*
X528320D01*
X530661Y513778D01*
X532646Y515104D01*
X590740Y573198D01*
X1010881D01*
X1011922Y571841D01*
X1014111Y570161D01*
X1016661Y569105D01*
X1019397Y568745D01*
X1024223D01*
X1026958Y569105D01*
X1029508Y570161D01*
X1031697Y571841D01*
X1033377Y574030D01*
X1034433Y576580D01*
X1034793Y579316D01*
X1034433Y582052D01*
X1033377Y584601D01*
X1031697Y586790D01*
X1029508Y588470D01*
X1026958Y589526D01*
X1024223Y589886D01*
X1019397D01*
X1016661Y589526D01*
X1014111Y588470D01*
X1011922Y586790D01*
X1010881Y585433D01*
X588206D01*
X585865Y584968D01*
X583880Y583641D01*
X525786Y525547D01*
X455702D01*
X454080Y527660D01*
X451670Y529510D01*
X449689Y530331D01*
X449634Y530549D01*
Y533711D01*
X449689Y533929D01*
X451670Y534750D01*
X454080Y536600D01*
X455702Y538713D01*
X515620D01*
X517961Y539178D01*
X519946Y540504D01*
X578040Y598598D01*
X1010793D01*
X1011872Y597191D01*
X1014076Y595500D01*
X1016643Y594437D01*
X1019397Y594075D01*
X1024223D01*
X1026977Y594437D01*
X1029543Y595500D01*
X1031747Y597191D01*
X1033438Y599395D01*
X1034501Y601962D01*
X1034864Y604716D01*
X1034501Y607470D01*
X1033438Y610036D01*
X1031747Y612240D01*
X1029543Y613931D01*
X1026977Y614994D01*
X1024223Y615357D01*
X1019397D01*
X1016643Y614994D01*
X1014076Y613931D01*
X1011872Y612240D01*
X1010793Y610833D01*
X575506D01*
X573165Y610368D01*
X571180Y609041D01*
X513086Y550947D01*
X455702D01*
X454080Y553060D01*
X451670Y554910D01*
X449689Y555731D01*
X449634Y555949D01*
Y559111D01*
X449689Y559329D01*
X451670Y560150D01*
X453567Y561605D01*
X453733Y561572D01*
X495497D01*
X497838Y562038D01*
X499823Y563364D01*
X560457Y623998D01*
X1010793D01*
X1011872Y622591D01*
X1014076Y620900D01*
X1016643Y619837D01*
X1019397Y619475D01*
X1024223D01*
X1026977Y619837D01*
X1029543Y620900D01*
X1031747Y622591D01*
X1033438Y624795D01*
X1034501Y627362D01*
X1034864Y630116D01*
X1034501Y632870D01*
X1033438Y635436D01*
X1031747Y637640D01*
X1029543Y639331D01*
X1026977Y640394D01*
X1024223Y640757D01*
X1019397D01*
X1016643Y640394D01*
X1014076Y639331D01*
X1011872Y637640D01*
X1010793Y636233D01*
X557923D01*
X555581Y635768D01*
X553597Y634441D01*
X492963Y573807D01*
X456859D01*
X455930Y576050D01*
X454080Y578460D01*
X451670Y580310D01*
X449689Y581130D01*
X449634Y581349D01*
Y584511D01*
X449689Y584729D01*
X451670Y585550D01*
X454080Y587400D01*
X455702Y589512D01*
X483870D01*
X486211Y589978D01*
X488196Y591304D01*
X546290Y649398D01*
X1010793D01*
X1011872Y647991D01*
X1014076Y646300D01*
X1016643Y645237D01*
X1019397Y644875D01*
X1024223D01*
X1026977Y645237D01*
X1029543Y646300D01*
X1031747Y647991D01*
X1033438Y650195D01*
X1034501Y652762D01*
X1034864Y655516D01*
X1034501Y658270D01*
X1033438Y660836D01*
X1031747Y663040D01*
X1029543Y664731D01*
X1026977Y665794D01*
X1026128Y665906D01*
Y669436D01*
X1027259Y669585D01*
X1030088Y670757D01*
X1032517Y672621D01*
X1034381Y675051D01*
X1035553Y677880D01*
X1035702Y679011D01*
X1021810D01*
X1007917D01*
X1008066Y677880D01*
X1009238Y675051D01*
X1011102Y672621D01*
X1013531Y670757D01*
X1016361Y669585D01*
X1017492Y669436D01*
Y665906D01*
X1016643Y665794D01*
X1014076Y664731D01*
X1011872Y663040D01*
X1010793Y661633D01*
X543756D01*
X541415Y661168D01*
X539430Y659841D01*
X481336Y601748D01*
X455702D01*
X454080Y603860D01*
X451670Y605710D01*
X449689Y606530D01*
X449634Y606749D01*
Y609911D01*
X449689Y610130D01*
X451670Y610950D01*
X454080Y612800D01*
X455930Y615210D01*
X457093Y618018D01*
X457490Y621030D01*
X457093Y624043D01*
X455930Y626850D01*
X454080Y629260D01*
X451670Y631110D01*
X449689Y631931D01*
X449634Y632149D01*
Y635311D01*
X449689Y635530D01*
X451670Y636350D01*
X454080Y638200D01*
X455930Y640610D01*
X457093Y643418D01*
X457490Y646430D01*
X457093Y649443D01*
X455930Y652250D01*
X454080Y654660D01*
X451670Y656510D01*
X449689Y657330D01*
X449634Y657549D01*
Y660711D01*
X449689Y660929D01*
X451670Y661750D01*
X454080Y663600D01*
X455930Y666010D01*
X457093Y668818D01*
X457490Y671830D01*
X457093Y674843D01*
X455930Y677650D01*
X454080Y680060D01*
X451670Y681910D01*
X449689Y682730D01*
X449634Y682949D01*
Y686111D01*
X449689Y686329D01*
X451670Y687150D01*
X454080Y689000D01*
X455930Y691410D01*
X457093Y694218D01*
X457490Y697230D01*
X457093Y700242D01*
X455930Y703050D01*
X454080Y705460D01*
X451670Y707310D01*
X449689Y708130D01*
X449634Y708349D01*
Y711511D01*
X449689Y711730D01*
X451670Y712550D01*
X454080Y714400D01*
X455930Y716810D01*
X457093Y719617D01*
X457490Y722630D01*
X457093Y725642D01*
X455930Y728450D01*
X454080Y730860D01*
X451670Y732710D01*
X449689Y733531D01*
X449634Y733749D01*
Y736911D01*
X449689Y737130D01*
X451670Y737950D01*
X454080Y739800D01*
X455930Y742210D01*
X457093Y745017D01*
X457490Y748030D01*
X457093Y751042D01*
X455930Y753850D01*
X454080Y756260D01*
X451670Y758110D01*
X449689Y758931D01*
X449634Y759149D01*
Y762311D01*
X449689Y762530D01*
X451670Y763350D01*
X454080Y765200D01*
X455930Y767610D01*
X457093Y770417D01*
X457490Y773430D01*
X457093Y776442D01*
X455930Y779250D01*
X454080Y781660D01*
X451670Y783510D01*
X449689Y784331D01*
X449634Y784549D01*
Y787711D01*
X449689Y787930D01*
X451670Y788750D01*
X454080Y790600D01*
X455930Y793010D01*
X457093Y795817D01*
X457490Y798830D01*
X457093Y801842D01*
X455930Y804650D01*
X454080Y807060D01*
X451670Y808910D01*
X449689Y809731D01*
X449634Y809949D01*
Y813111D01*
X449689Y813329D01*
X451670Y814150D01*
X454080Y816000D01*
X455930Y818410D01*
X457093Y821217D01*
X457490Y824230D01*
X457093Y827243D01*
X455930Y830050D01*
X454080Y832460D01*
X451670Y834310D01*
X451329Y834451D01*
Y838240D01*
X452214Y838606D01*
X454851Y840629D01*
X456874Y843266D01*
X458145Y846336D01*
X458328Y847725D01*
X440690D01*
Y851535D01*
X458328D01*
X458145Y852924D01*
X456874Y855994D01*
X454851Y858631D01*
X452583Y860371D01*
X452380Y862330D01*
X452583Y864289D01*
X454851Y866029D01*
X456874Y868665D01*
X458145Y871736D01*
X458328Y873125D01*
X440690D01*
Y875030D01*
X438785D01*
Y887759D01*
X435530D01*
X432235Y887325D01*
X429166Y886053D01*
X428717Y885710D01*
X425218Y887436D01*
Y938238D01*
X428451Y939577D01*
X476483Y891546D01*
Y801370D01*
X476948Y799029D01*
X478274Y797044D01*
X493016Y782303D01*
X495000Y780977D01*
X497341Y780511D01*
X521576D01*
X521788Y780143D01*
X523603Y778328D01*
X525827Y777045D01*
X528306Y776380D01*
X530874D01*
X533353Y777045D01*
X535577Y778328D01*
X537392Y780143D01*
X538675Y782367D01*
X539340Y784846D01*
Y787414D01*
X538675Y789893D01*
X537392Y792117D01*
X535577Y793932D01*
X533353Y795216D01*
X530874Y795880D01*
X528306D01*
X525827Y795216D01*
X523603Y793932D01*
X522417Y792746D01*
X499875D01*
X488717Y803904D01*
Y894080D01*
X488252Y896421D01*
X486926Y898406D01*
X423426Y961906D01*
X417076Y968256D01*
X415091Y969582D01*
X412750Y970048D01*
D02*
G37*
G36*
X531495Y771832D02*
Y763035D01*
X540292D01*
X539682Y765310D01*
X538256Y767780D01*
X536240Y769796D01*
X533770Y771222D01*
X531495Y771832D01*
D02*
G37*
G36*
X527685D02*
X525410Y771222D01*
X522940Y769796D01*
X520924Y767780D01*
X519498Y765310D01*
X518888Y763035D01*
X527685D01*
Y771832D01*
D02*
G37*
G36*
Y759225D02*
X518888D01*
X519498Y756950D01*
X520924Y754480D01*
X522940Y752464D01*
X525410Y751038D01*
X527685Y750428D01*
Y759225D01*
D02*
G37*
G36*
X540292D02*
X531495D01*
Y750428D01*
X533770Y751038D01*
X536240Y752464D01*
X538256Y754480D01*
X539682Y756950D01*
X540292Y759225D01*
D02*
G37*
G36*
X915100Y770570D02*
X911160D01*
X907296Y769801D01*
X903656Y768294D01*
X900381Y766105D01*
X897595Y763319D01*
X895406Y760043D01*
X893899Y756404D01*
X893130Y752540D01*
Y748600D01*
X893899Y744736D01*
X895406Y741096D01*
X897595Y737821D01*
X900381Y735035D01*
X903656Y732846D01*
X907296Y731339D01*
X911160Y730570D01*
X915100D01*
X918964Y731339D01*
X922604Y732846D01*
X925879Y735035D01*
X928665Y737821D01*
X930854Y741096D01*
X932361Y744736D01*
X933130Y748600D01*
Y752540D01*
X932361Y756404D01*
X930854Y760043D01*
X928665Y763319D01*
X925879Y766105D01*
X922604Y768294D01*
X918964Y769801D01*
X915100Y770570D01*
D02*
G37*
G36*
X1024223Y539157D02*
X1019397D01*
X1016643Y538794D01*
X1014076Y537731D01*
X1011872Y536040D01*
X1010181Y533836D01*
X1009118Y531270D01*
X1008756Y528516D01*
X1009118Y525762D01*
X1010181Y523195D01*
X1011872Y520991D01*
X1014076Y519300D01*
X1016643Y518237D01*
X1019397Y517875D01*
X1024223D01*
X1026977Y518237D01*
X1029543Y519300D01*
X1031747Y520991D01*
X1033438Y523195D01*
X1034501Y525762D01*
X1034864Y528516D01*
X1034501Y531270D01*
X1033438Y533836D01*
X1031747Y536040D01*
X1029543Y537731D01*
X1026977Y538794D01*
X1024223Y539157D01*
D02*
G37*
G36*
Y513757D02*
X1019397D01*
X1016643Y513394D01*
X1014076Y512331D01*
X1011872Y510640D01*
X1010181Y508436D01*
X1009118Y505870D01*
X1008756Y503116D01*
X1009118Y500362D01*
X1010181Y497795D01*
X1011872Y495591D01*
X1014076Y493900D01*
X1016643Y492837D01*
X1019397Y492475D01*
X1024223D01*
X1026977Y492837D01*
X1029543Y493900D01*
X1031747Y495591D01*
X1033438Y497795D01*
X1034501Y500362D01*
X1034864Y503116D01*
X1034501Y505870D01*
X1033438Y508436D01*
X1031747Y510640D01*
X1029543Y512331D01*
X1026977Y513394D01*
X1024223Y513757D01*
D02*
G37*
G36*
X223405Y492125D02*
X205105D01*
Y478978D01*
X208540D01*
X211477Y479267D01*
X214300Y480123D01*
X216903Y481514D01*
X219184Y483386D01*
X221056Y485667D01*
X222447Y488270D01*
X223303Y491093D01*
X223405Y492125D01*
D02*
G37*
G36*
X201295D02*
X182995D01*
X183097Y491093D01*
X183953Y488270D01*
X185344Y485667D01*
X187216Y483386D01*
X189497Y481514D01*
X192100Y480123D01*
X194923Y479267D01*
X197860Y478978D01*
X201295D01*
Y492125D01*
D02*
G37*
G36*
X48895D02*
X30595D01*
X30697Y491093D01*
X31553Y488270D01*
X32944Y485667D01*
X34816Y483386D01*
X37097Y481514D01*
X39700Y480123D01*
X42523Y479267D01*
X45460Y478978D01*
X48895D01*
Y492125D01*
D02*
G37*
G36*
X915100Y496250D02*
X911160D01*
X907296Y495481D01*
X903656Y493974D01*
X900381Y491785D01*
X897595Y488999D01*
X895406Y485723D01*
X893899Y482084D01*
X893130Y478220D01*
Y474280D01*
X893899Y470416D01*
X895406Y466777D01*
X897595Y463501D01*
X900381Y460715D01*
X903656Y458526D01*
X907296Y457019D01*
X911160Y456250D01*
X915100D01*
X918964Y457019D01*
X922604Y458526D01*
X925879Y460715D01*
X928665Y463501D01*
X930854Y466777D01*
X932361Y470416D01*
X933130Y474280D01*
Y478220D01*
X932361Y482084D01*
X930854Y485723D01*
X928665Y488999D01*
X925879Y491785D01*
X922604Y493974D01*
X918964Y495481D01*
X915100Y496250D01*
D02*
G37*
G36*
X321310Y948457D02*
X181610D01*
X179269Y947992D01*
X177284Y946666D01*
X152669Y922050D01*
X151342Y920065D01*
X150877Y917724D01*
Y527536D01*
X151342Y525195D01*
X152669Y523210D01*
X159509Y516369D01*
X159509Y516369D01*
X160774Y515104D01*
X162759Y513778D01*
X165100Y513312D01*
X185349D01*
X185718Y512420D01*
X187854Y509636D01*
X188001Y509389D01*
X187840Y505186D01*
X187216Y504674D01*
X185344Y502393D01*
X183953Y499790D01*
X183097Y496967D01*
X182995Y495935D01*
X203200D01*
X223405D01*
X223303Y496967D01*
X222447Y499790D01*
X221056Y502393D01*
X219184Y504674D01*
X218559Y505186D01*
X218399Y509389D01*
X218545Y509636D01*
X220682Y512420D01*
X222082Y515801D01*
X222124Y516115D01*
X225819Y517370D01*
X242054Y501134D01*
X244039Y499808D01*
X246380Y499342D01*
X268381D01*
X271747Y495976D01*
X271490Y494030D01*
X271887Y491017D01*
X273050Y488210D01*
X274900Y485800D01*
X277310Y483950D01*
X279291Y483130D01*
X279346Y482911D01*
Y479749D01*
X279291Y479530D01*
X277310Y478710D01*
X274900Y476860D01*
X273050Y474450D01*
X271887Y471642D01*
X271490Y468630D01*
X271887Y465617D01*
X273050Y462810D01*
X274900Y460400D01*
X277310Y458550D01*
X279291Y457729D01*
X279346Y457511D01*
Y454349D01*
X279291Y454131D01*
X277310Y453310D01*
X274900Y451460D01*
X273050Y449050D01*
X271887Y446242D01*
X271490Y443230D01*
X271887Y440218D01*
X273050Y437410D01*
X274900Y435000D01*
X277310Y433150D01*
X277651Y433009D01*
Y429220D01*
X276766Y428853D01*
X274129Y426831D01*
X272106Y424194D01*
X270835Y421124D01*
X270652Y419735D01*
X305928D01*
X305745Y421124D01*
X304473Y424194D01*
X302451Y426831D01*
X299814Y428853D01*
X298929Y429220D01*
Y433009D01*
X299270Y433150D01*
X301680Y435000D01*
X303530Y437410D01*
X304693Y440218D01*
X305090Y443230D01*
X304693Y446242D01*
X303530Y449050D01*
X301680Y451460D01*
X299270Y453310D01*
X297289Y454131D01*
X297234Y454349D01*
Y457511D01*
X297289Y457729D01*
X299270Y458550D01*
X301680Y460400D01*
X303530Y462810D01*
X304693Y465617D01*
X305090Y468630D01*
X304693Y471642D01*
X303530Y474450D01*
X301680Y476860D01*
X299270Y478710D01*
X297289Y479530D01*
X297234Y479749D01*
Y482911D01*
X297289Y483130D01*
X299270Y483950D01*
X301680Y485800D01*
X303530Y488210D01*
X304693Y491017D01*
X305090Y494030D01*
X304693Y497043D01*
X303530Y499850D01*
X301680Y502260D01*
X299270Y504110D01*
X297289Y504930D01*
X297234Y505149D01*
Y508311D01*
X297289Y508530D01*
X299270Y509350D01*
X301680Y511200D01*
X303530Y513610D01*
X304693Y516418D01*
X305090Y519430D01*
X304693Y522443D01*
X303530Y525250D01*
X301680Y527660D01*
X299270Y529510D01*
X297289Y530331D01*
X297234Y530549D01*
Y533711D01*
X297289Y533929D01*
X299270Y534750D01*
X301680Y536600D01*
X303530Y539010D01*
X304693Y541818D01*
X305090Y544830D01*
X304693Y547842D01*
X303530Y550650D01*
X301680Y553060D01*
X299270Y554910D01*
X297289Y555731D01*
X297234Y555949D01*
Y559111D01*
X297289Y559329D01*
X299270Y560150D01*
X301680Y562000D01*
X303530Y564410D01*
X304693Y567217D01*
X305090Y570230D01*
X304693Y573242D01*
X303530Y576050D01*
X301680Y578460D01*
X299270Y580310D01*
X297289Y581130D01*
X297234Y581349D01*
Y584511D01*
X297289Y584729D01*
X299270Y585550D01*
X301680Y587400D01*
X303530Y589810D01*
X304693Y592617D01*
X305090Y595630D01*
X304693Y598643D01*
X303530Y601450D01*
X301680Y603860D01*
X299270Y605710D01*
X297289Y606530D01*
X297234Y606749D01*
Y609911D01*
X297289Y610130D01*
X299270Y610950D01*
X301680Y612800D01*
X303530Y615210D01*
X304693Y618018D01*
X305090Y621030D01*
X304693Y624043D01*
X303530Y626850D01*
X301680Y629260D01*
X299270Y631110D01*
X297289Y631931D01*
X297234Y632149D01*
Y635311D01*
X297289Y635530D01*
X299270Y636350D01*
X301680Y638200D01*
X303530Y640610D01*
X304693Y643418D01*
X305090Y646430D01*
X304693Y649443D01*
X303530Y652250D01*
X301680Y654660D01*
X299270Y656510D01*
X297289Y657330D01*
X297234Y657549D01*
Y660711D01*
X297289Y660929D01*
X299270Y661750D01*
X301680Y663600D01*
X303530Y666010D01*
X304693Y668818D01*
X305090Y671830D01*
X304693Y674843D01*
X303530Y677650D01*
X301680Y680060D01*
X299270Y681910D01*
X297289Y682730D01*
X297234Y682949D01*
Y686111D01*
X297289Y686329D01*
X299270Y687150D01*
X301680Y689000D01*
X303530Y691410D01*
X304693Y694218D01*
X305090Y697230D01*
X304693Y700242D01*
X303530Y703050D01*
X301680Y705460D01*
X299270Y707310D01*
X297289Y708130D01*
X297234Y708349D01*
Y711511D01*
X297289Y711730D01*
X299270Y712550D01*
X301680Y714400D01*
X303530Y716810D01*
X304693Y719617D01*
X305090Y722630D01*
X304693Y725642D01*
X303530Y728450D01*
X301680Y730860D01*
X299270Y732710D01*
X297289Y733531D01*
X297234Y733749D01*
Y736911D01*
X297289Y737130D01*
X299270Y737950D01*
X301680Y739800D01*
X303302Y741913D01*
X314855D01*
X317196Y742378D01*
X319181Y743704D01*
X343416Y767939D01*
X344742Y769924D01*
X345207Y772265D01*
Y924560D01*
X344742Y926901D01*
X343416Y928886D01*
X325636Y946666D01*
X323651Y947992D01*
X321310Y948457D01*
D02*
G37*
G36*
X73693Y355165D02*
X61765D01*
Y344230D01*
X64352Y344570D01*
X67473Y345863D01*
X70153Y347919D01*
X72210Y350600D01*
X73503Y353721D01*
X73693Y355165D01*
D02*
G37*
G36*
X57955D02*
X46027D01*
X46217Y353721D01*
X47510Y350600D01*
X49566Y347919D01*
X52246Y345863D01*
X55368Y344570D01*
X57955Y344230D01*
Y355165D01*
D02*
G37*
G36*
X41111Y407570D02*
X38609D01*
X36193Y406923D01*
X34027Y405672D01*
X32258Y403903D01*
X31007Y401737D01*
X30360Y399321D01*
Y396819D01*
X31007Y394403D01*
X32258Y392237D01*
X34027Y390468D01*
X36193Y389217D01*
X38609Y388570D01*
X41111D01*
X43527Y389217D01*
X44610Y389843D01*
X47544Y388555D01*
X48110Y387969D01*
Y370320D01*
X49160D01*
X50348Y366820D01*
X49566Y366220D01*
X47510Y363540D01*
X46217Y360419D01*
X46027Y358975D01*
X59860D01*
X73693D01*
X73503Y360419D01*
X72210Y363540D01*
X70153Y366220D01*
X69372Y366820D01*
X70560Y370320D01*
X71610D01*
Y375514D01*
X83614D01*
Y239906D01*
X59986D01*
X58851Y242647D01*
X57072Y245309D01*
X54809Y247572D01*
X52147Y249351D01*
X49190Y250576D01*
X46051Y251200D01*
X42849D01*
X39710Y250576D01*
X36753Y249351D01*
X34091Y247572D01*
X31828Y245309D01*
X30049Y242647D01*
X28825Y239690D01*
X28200Y236551D01*
Y233349D01*
X28825Y230210D01*
X30049Y227253D01*
X31828Y224591D01*
X34091Y222328D01*
X36753Y220549D01*
X39710Y219324D01*
X42849Y218700D01*
X46051D01*
X49190Y219324D01*
X52147Y220549D01*
X54809Y222328D01*
X57072Y224591D01*
X58544Y226793D01*
X86692D01*
X88389Y227017D01*
X89970Y227672D01*
X91328Y228714D01*
X94806Y232192D01*
X95848Y233550D01*
X96503Y235131D01*
X96726Y236828D01*
Y379141D01*
X96503Y380838D01*
X95848Y382419D01*
X94806Y383777D01*
X91877Y386706D01*
X90519Y387748D01*
X88938Y388403D01*
X87241Y388626D01*
X71610D01*
Y393820D01*
X52180D01*
X49360Y396819D01*
Y399321D01*
X48713Y401737D01*
X47462Y403903D01*
X45693Y405672D01*
X43527Y406923D01*
X41111Y407570D01*
D02*
G37*
G36*
X60700Y204200D02*
X28200D01*
Y171700D01*
X60700D01*
Y204200D01*
D02*
G37*
G36*
X97220Y159700D02*
X93280D01*
X89416Y158931D01*
X85777Y157424D01*
X82501Y155235D01*
X79715Y152449D01*
X77526Y149173D01*
X76019Y145534D01*
X75250Y141670D01*
Y137730D01*
X76019Y133866D01*
X77526Y130226D01*
X79715Y126951D01*
X82501Y124165D01*
X85777Y121976D01*
X89416Y120469D01*
X93280Y119700D01*
X97220D01*
X101084Y120469D01*
X104724Y121976D01*
X107999Y124165D01*
X110785Y126951D01*
X112974Y130226D01*
X114481Y133866D01*
X115250Y137730D01*
Y141670D01*
X114481Y145534D01*
X112974Y149173D01*
X110785Y152449D01*
X107999Y155235D01*
X104724Y157424D01*
X101084Y158931D01*
X97220Y159700D01*
D02*
G37*
G36*
X250099Y135430D02*
X243960D01*
X237897Y134470D01*
X232059Y132573D01*
X226589Y129786D01*
X221623Y126178D01*
X217282Y121837D01*
X213674Y116871D01*
X210887Y111401D01*
X208990Y105563D01*
X208029Y99500D01*
Y93361D01*
X208990Y87298D01*
X210887Y81459D01*
X213674Y75990D01*
X217282Y71023D01*
X221623Y66683D01*
X226589Y63074D01*
X232059Y60287D01*
X237897Y58390D01*
X243960Y57430D01*
X250099D01*
X256162Y58390D01*
X262000Y60287D01*
X267470Y63074D01*
X272436Y66683D01*
X276777Y71023D01*
X280385Y75990D01*
X283172Y81459D01*
X285069Y87298D01*
X286029Y93361D01*
Y99500D01*
X285069Y105563D01*
X283172Y111401D01*
X280385Y116871D01*
X276777Y121837D01*
X272436Y126178D01*
X267470Y129786D01*
X262000Y132573D01*
X256162Y134470D01*
X250099Y135430D01*
D02*
G37*
%LPD*%
G36*
X114978Y909664D02*
X117184Y907458D01*
X118343Y906789D01*
Y601974D01*
X97247Y580879D01*
X68456D01*
X67137Y582281D01*
X66054Y585716D01*
X68282Y588620D01*
X69682Y592001D01*
X69951Y594044D01*
X83271D01*
X85612Y594510D01*
X87597Y595836D01*
X103386Y611624D01*
X104712Y613609D01*
X105178Y615950D01*
Y905090D01*
X110910D01*
Y909709D01*
X114410Y910647D01*
X114978Y909664D01*
D02*
G37*
G36*
X182636Y413233D02*
X182838Y411958D01*
X182479Y408861D01*
X180215Y406713D01*
X176950Y407658D01*
Y411900D01*
X171217D01*
Y412750D01*
X170752Y415091D01*
X169426Y417076D01*
X69801Y516701D01*
X70160Y519430D01*
X69959Y520960D01*
X73273Y522595D01*
X182636Y413233D01*
D02*
G37*
G36*
X332972Y922026D02*
Y774799D01*
X312321Y754147D01*
X303302D01*
X301680Y756260D01*
X299270Y758110D01*
X297289Y758931D01*
X297234Y759149D01*
Y762311D01*
X297289Y762530D01*
X299270Y763350D01*
X301680Y765200D01*
X303530Y767610D01*
X304693Y770417D01*
X305090Y773430D01*
X304693Y776442D01*
X303530Y779250D01*
X301680Y781660D01*
X299270Y783510D01*
X297289Y784331D01*
X297234Y784549D01*
Y787711D01*
X297289Y787930D01*
X299270Y788750D01*
X301680Y790600D01*
X303530Y793010D01*
X304693Y795817D01*
X305090Y798830D01*
X304693Y801842D01*
X303530Y804650D01*
X301680Y807060D01*
X299270Y808910D01*
X297289Y809731D01*
X297234Y809949D01*
Y813111D01*
X297289Y813329D01*
X299270Y814150D01*
X301680Y816000D01*
X303530Y818410D01*
X304693Y821217D01*
X305090Y824230D01*
X304693Y827243D01*
X303530Y830050D01*
X301680Y832460D01*
X299270Y834310D01*
X297289Y835130D01*
X297234Y835349D01*
Y838511D01*
X297289Y838729D01*
X299270Y839550D01*
X301680Y841400D01*
X303530Y843810D01*
X304693Y846618D01*
X305090Y849630D01*
X304693Y852643D01*
X303530Y855450D01*
X301680Y857860D01*
X299270Y859710D01*
X297289Y860530D01*
X297234Y860749D01*
Y863911D01*
X297289Y864129D01*
X299270Y864950D01*
X301680Y866800D01*
X303530Y869210D01*
X304693Y872018D01*
X305090Y875030D01*
X304693Y878043D01*
X303530Y880850D01*
X301680Y883260D01*
X299270Y885110D01*
X296463Y886273D01*
X293450Y886669D01*
X283130D01*
X280117Y886273D01*
X279113Y885857D01*
X274184Y890786D01*
X272199Y892112D01*
X269858Y892578D01*
X201930D01*
X199589Y892112D01*
X197604Y890786D01*
X168394Y861576D01*
X167068Y859591D01*
X166602Y857250D01*
X163112Y857273D01*
Y915190D01*
X184144Y936223D01*
X318776D01*
X332972Y922026D01*
D02*
G37*
G36*
X271624Y876043D02*
X271490Y875030D01*
X271887Y872018D01*
X273050Y869210D01*
X274900Y866800D01*
X277310Y864950D01*
X279291Y864129D01*
X279346Y863911D01*
Y860749D01*
X279291Y860530D01*
X277310Y859710D01*
X274900Y857860D01*
X273050Y855450D01*
X271887Y852643D01*
X271490Y849630D01*
X271887Y846618D01*
X273050Y843810D01*
X274900Y841400D01*
X277310Y839550D01*
X279291Y838729D01*
X279346Y838511D01*
Y835349D01*
X279291Y835130D01*
X277310Y834310D01*
X274900Y832460D01*
X273050Y830050D01*
X271887Y827243D01*
X271490Y824230D01*
X271887Y821217D01*
X273050Y818410D01*
X274900Y816000D01*
X277310Y814150D01*
X279291Y813329D01*
X279346Y813111D01*
Y809949D01*
X279291Y809731D01*
X277310Y808910D01*
X274900Y807060D01*
X273050Y804650D01*
X271887Y801842D01*
X271490Y798830D01*
X271887Y795817D01*
X273050Y793010D01*
X274900Y790600D01*
X277310Y788750D01*
X279291Y787930D01*
X279346Y787711D01*
Y784549D01*
X279291Y784331D01*
X277310Y783510D01*
X274900Y781660D01*
X274513Y781157D01*
X216239D01*
X213898Y780691D01*
X211914Y779365D01*
X198874Y766326D01*
X197548Y764341D01*
X197083Y762000D01*
Y685748D01*
X194231Y685372D01*
X190850Y683972D01*
X187946Y681744D01*
X185718Y678840D01*
X184318Y675459D01*
X183840Y671830D01*
X184318Y668201D01*
X185718Y664820D01*
X187946Y661916D01*
X188703Y661336D01*
Y656924D01*
X187946Y656344D01*
X185718Y653440D01*
X184318Y650059D01*
X183840Y646430D01*
X184318Y642801D01*
X185718Y639420D01*
X187946Y636516D01*
X188703Y635936D01*
Y631524D01*
X187946Y630944D01*
X185718Y628040D01*
X184318Y624659D01*
X183840Y621030D01*
X184318Y617401D01*
X185718Y614020D01*
X187946Y611116D01*
X188703Y610536D01*
Y606124D01*
X187946Y605544D01*
X185904Y602882D01*
X183855Y602571D01*
X182115Y602506D01*
X178838Y605784D01*
Y854716D01*
X204464Y880342D01*
X267324D01*
X271624Y876043D01*
D02*
G37*
G36*
X273050Y767610D02*
X274900Y765200D01*
X277310Y763350D01*
X279291Y762530D01*
X279346Y762311D01*
Y759149D01*
X279291Y758931D01*
X277310Y758110D01*
X274900Y756260D01*
X273050Y753850D01*
X271887Y751042D01*
X271490Y748030D01*
X271887Y745017D01*
X273050Y742210D01*
X274900Y739800D01*
X277310Y737950D01*
X279291Y737130D01*
X279346Y736911D01*
Y733749D01*
X279291Y733531D01*
X277310Y732710D01*
X274900Y730860D01*
X273050Y728450D01*
X271887Y725642D01*
X271490Y722630D01*
X271887Y719617D01*
X273050Y716810D01*
X274900Y714400D01*
X277310Y712550D01*
X279291Y711730D01*
X279346Y711511D01*
Y708349D01*
X279291Y708130D01*
X277310Y707310D01*
X274900Y705460D01*
X273050Y703050D01*
X271887Y700242D01*
X271490Y697230D01*
X271887Y694218D01*
X273050Y691410D01*
X274900Y689000D01*
X277310Y687150D01*
X279291Y686329D01*
X279346Y686111D01*
Y682949D01*
X279291Y682730D01*
X277310Y681910D01*
X274900Y680060D01*
X273050Y677650D01*
X271887Y674843D01*
X271490Y671830D01*
X271887Y668818D01*
X273050Y666010D01*
X274900Y663600D01*
X277310Y661750D01*
X279291Y660929D01*
X279346Y660711D01*
Y657549D01*
X279291Y657330D01*
X277310Y656510D01*
X274900Y654660D01*
X273050Y652250D01*
X271887Y649443D01*
X271490Y646430D01*
X271887Y643418D01*
X273050Y640610D01*
X274900Y638200D01*
X277310Y636350D01*
X279291Y635530D01*
X279346Y635311D01*
Y632149D01*
X279291Y631931D01*
X277310Y631110D01*
X274900Y629260D01*
X273050Y626850D01*
X271887Y624043D01*
X271490Y621030D01*
X271887Y618018D01*
X273050Y615210D01*
X274900Y612800D01*
X277310Y610950D01*
X279291Y610130D01*
X279346Y609911D01*
Y606749D01*
X279291Y606530D01*
X277310Y605710D01*
X274900Y603860D01*
X273050Y601450D01*
X271887Y598643D01*
X271821Y598139D01*
X268125Y596884D01*
X222097Y642913D01*
X222560Y646430D01*
X222082Y650059D01*
X220682Y653440D01*
X218454Y656344D01*
X217697Y656924D01*
Y661336D01*
X218454Y661916D01*
X220682Y664820D01*
X222082Y668201D01*
X222560Y671830D01*
X222082Y675459D01*
X220682Y678840D01*
X218454Y681744D01*
X215550Y683972D01*
X212169Y685372D01*
X209317Y685748D01*
Y759466D01*
X218773Y768922D01*
X272507D01*
X273050Y767610D01*
D02*
G37*
G36*
X272082Y575625D02*
X271143Y572207D01*
X267999Y571233D01*
X222224Y617007D01*
X222709Y620433D01*
X224408Y621393D01*
X226001Y621706D01*
X272082Y575625D01*
D02*
G37*
G36*
X272531Y549397D02*
X271887Y547842D01*
X271490Y544830D01*
X271887Y541818D01*
X272548Y540221D01*
X271556Y538251D01*
X270897Y537449D01*
X270247Y536978D01*
X250444D01*
X221713Y565709D01*
X222082Y566601D01*
X222560Y570230D01*
X222082Y573859D01*
X220682Y577240D01*
X218454Y580144D01*
X217697Y580724D01*
Y585136D01*
X218454Y585716D01*
X220682Y588620D01*
X222082Y592001D01*
X222419Y594560D01*
X225133Y595861D01*
X225990Y595938D01*
X272531Y549397D01*
D02*
G37*
G36*
X167068Y600909D02*
X168394Y598924D01*
X176014Y591304D01*
X177999Y589978D01*
X180340Y589512D01*
X185349D01*
X185718Y588620D01*
X187946Y585716D01*
X188703Y585136D01*
Y580724D01*
X187946Y580144D01*
X185718Y577240D01*
X184318Y573859D01*
X183840Y570230D01*
X184318Y566601D01*
X185718Y563220D01*
X187946Y560316D01*
X188703Y559736D01*
Y555324D01*
X187946Y554744D01*
X185718Y551840D01*
X184318Y548459D01*
X183840Y544830D01*
X184318Y541201D01*
X185718Y537820D01*
X187946Y534916D01*
X188703Y534336D01*
Y529924D01*
X187946Y529344D01*
X185718Y526440D01*
X185349Y525547D01*
X167634D01*
X163112Y530070D01*
Y603227D01*
X166602Y603250D01*
X167068Y600909D01*
D02*
G37*
G36*
X243584Y526534D02*
X245569Y525208D01*
X247910Y524743D01*
X268381D01*
X271747Y521376D01*
X271490Y519430D01*
X271887Y516418D01*
X272548Y514821D01*
X271556Y512851D01*
X270897Y512049D01*
X270247Y511577D01*
X248914D01*
X225401Y535090D01*
X225204Y535222D01*
X224811Y535701D01*
X224332Y536094D01*
X224200Y536291D01*
X221264Y539227D01*
X222082Y541201D01*
X222302Y542867D01*
X225997Y544122D01*
X243584Y526534D01*
D02*
G37*
D13*
X19337Y1212850D02*
X32692D01*
X39370Y1206172D01*
X32692Y1199494D01*
X19337D01*
X29353Y1192816D02*
Y1179461D01*
X39370Y1159427D02*
Y1172783D01*
X26014Y1159427D01*
X22675D01*
X19337Y1162766D01*
Y1169444D01*
X22675Y1172783D01*
X39370Y1152749D02*
X36031D01*
Y1149410D01*
X39370D01*
Y1152749D01*
X22675Y1136055D02*
X19337Y1132716D01*
Y1126038D01*
X22675Y1122699D01*
X36031D01*
X39370Y1126038D01*
Y1132716D01*
X36031Y1136055D01*
X22675D01*
D14*
X44450Y281950D02*
D03*
Y234950D02*
D03*
D15*
Y187950D02*
D03*
D18*
X1021810Y503116D02*
D03*
Y528516D02*
D03*
Y604716D02*
D03*
Y553916D02*
D03*
Y655516D02*
D03*
Y630116D02*
D03*
Y680916D02*
D03*
D19*
Y579316D02*
D03*
D20*
Y706316D02*
D03*
D25*
X59860Y357070D02*
D03*
D26*
X39860Y398070D02*
D03*
D27*
X59860Y382070D02*
D03*
D28*
X190500Y400050D02*
D03*
X124460Y916940D02*
D03*
D29*
X165100Y400050D02*
D03*
X99060Y916940D02*
D03*
D30*
X254000Y1097280D02*
D03*
D31*
X247029Y96430D02*
D03*
X913130Y750570D02*
D03*
Y476250D02*
D03*
X95250Y139700D02*
D03*
Y1055370D02*
D03*
D32*
X288290Y392430D02*
D03*
Y417830D02*
D03*
Y443230D02*
D03*
Y468630D02*
D03*
Y494030D02*
D03*
Y519430D02*
D03*
Y544830D02*
D03*
Y570230D02*
D03*
Y595630D02*
D03*
Y621030D02*
D03*
Y646430D02*
D03*
Y671830D02*
D03*
Y697230D02*
D03*
Y722630D02*
D03*
Y748030D02*
D03*
Y773430D02*
D03*
Y798830D02*
D03*
Y824230D02*
D03*
Y849630D02*
D03*
Y875030D02*
D03*
X440690D02*
D03*
Y849630D02*
D03*
Y824230D02*
D03*
Y798830D02*
D03*
Y773430D02*
D03*
Y748030D02*
D03*
Y722630D02*
D03*
Y697230D02*
D03*
Y671830D02*
D03*
Y646430D02*
D03*
Y621030D02*
D03*
Y595630D02*
D03*
Y570230D02*
D03*
Y544830D02*
D03*
Y519430D02*
D03*
Y494030D02*
D03*
Y468630D02*
D03*
Y443230D02*
D03*
Y417830D02*
D03*
D33*
Y392430D02*
D03*
D34*
X203200Y494030D02*
D03*
X50800D02*
D03*
Y621030D02*
D03*
X203200Y671830D02*
D03*
Y570230D02*
D03*
Y646430D02*
D03*
Y621030D02*
D03*
Y595630D02*
D03*
Y519430D02*
D03*
Y544830D02*
D03*
X50800Y671830D02*
D03*
Y646430D02*
D03*
Y519430D02*
D03*
Y544830D02*
D03*
Y570230D02*
D03*
Y595630D02*
D03*
D35*
X529590Y761130D02*
D03*
Y786130D02*
D03*
D36*
X221075Y530765D02*
G03*
X219875Y531965I-12535J-11335D01*
G01*
X16510Y284480D02*
X19040Y281950D01*
X44450D01*
X48246Y650961D02*
Y671830D01*
Y928355D01*
X16510Y284480D02*
X16510Y646895D01*
X55159Y549361D02*
X190500Y414020D01*
Y400050D02*
Y414020D01*
X50800Y519430D02*
X58420D01*
X165100Y412750D01*
Y400050D02*
Y412750D01*
X16510Y646895D02*
X21125Y651510D01*
X543756Y655516D02*
X1021810D01*
X483870Y595630D02*
X543756Y655516D01*
X419100Y957580D02*
X482600Y894080D01*
Y801370D02*
X497341Y786628D01*
X482600Y801370D02*
Y894080D01*
X497341Y786628D02*
X529091D01*
X216239Y775040D02*
X285370D01*
X203200Y671830D02*
Y762000D01*
X216239Y775040D01*
X285370D02*
X286681D01*
X288290Y773430D01*
Y375723D02*
Y392430D01*
X290633Y373380D02*
X472637D01*
X288290Y375723D02*
X290633Y373380D01*
X172720Y603250D02*
Y857250D01*
Y603250D02*
X180340Y595630D01*
X172720Y857250D02*
X201930Y886460D01*
X209550Y621030D02*
X285750Y544830D01*
X288290D01*
X203200Y621030D02*
X209550D01*
X246380Y505460D02*
X270915D01*
X207010Y544830D02*
X219875Y531965D01*
X221075Y530765D02*
X246380Y505460D01*
X203200Y544830D02*
X207010D01*
X419100Y840543D02*
Y957580D01*
X412750Y963930D02*
X419100Y957580D01*
Y840543D02*
X435413Y824230D01*
X203200Y646430D02*
X209928D01*
X286128Y570230D01*
X270915Y530860D02*
X280735Y521040D01*
X208540Y570230D02*
X247910Y530860D01*
X280735Y521040D02*
X285370D01*
X247910Y530860D02*
X270915D01*
X286681Y521040D02*
X288290Y519430D01*
X285370Y521040D02*
X286681D01*
X440690Y595630D02*
X483870D01*
X453313Y568110D02*
X453733Y567690D01*
X442810Y568110D02*
X453313D01*
X453733Y567690D02*
X495497D01*
X557923Y630116D01*
X440690Y570230D02*
X442810Y568110D01*
X440690Y544830D02*
X515620D01*
X575506Y604716D01*
X440690Y519430D02*
X528320D01*
X588206Y579316D01*
X542290Y494030D02*
X602176Y553916D01*
X440690Y494030D02*
X542290D01*
X602176Y553916D02*
X1021810D01*
X286128Y570230D02*
X288290D01*
X575506Y604716D02*
X1021810D01*
X314855Y748030D02*
X339090Y772265D01*
X288290Y748030D02*
X314855D01*
X339090Y772265D02*
Y924560D01*
X321310Y942340D02*
X339090Y924560D01*
X181610Y942340D02*
X321310D01*
X156994Y917724D02*
X181610Y942340D01*
X156994Y527536D02*
Y917724D01*
Y527536D02*
X163835Y520695D01*
X165100Y519430D01*
X203200D01*
X557923Y630116D02*
X1021810D01*
X203200Y570230D02*
X208540D01*
X588206Y579316D02*
X1021810D01*
X286681Y876639D02*
X288290Y875030D01*
X285370Y876639D02*
X286681D01*
X279678D02*
X285370D01*
X269858Y886460D02*
X279678Y876639D01*
X201930Y886460D02*
X269858D01*
X180340Y595630D02*
X203200D01*
X472637Y373380D02*
X533597Y434340D01*
X1061720D01*
X1066260Y438880D01*
Y703972D01*
X1063916Y706316D02*
X1066260Y703972D01*
X1021810Y706316D02*
X1063916D01*
X286681Y495639D02*
X288290Y494030D01*
X285370Y495639D02*
X286681D01*
X280735D02*
X285370D01*
X270915Y505460D02*
X280735Y495639D01*
X435413Y824230D02*
X440690D01*
X48246Y671830D02*
X50800D01*
Y646430D02*
Y648407D01*
X48246Y650961D02*
X50800Y648407D01*
X83820Y963930D02*
X412750D01*
X48246Y928355D02*
X83820Y963930D01*
X529091Y786628D02*
X529590Y786130D01*
X21125Y651510D02*
X47697D01*
X99060Y615950D02*
Y916940D01*
X48246Y600161D02*
X83271D01*
X99060Y615950D01*
X99781Y574761D02*
X124460Y599440D01*
Y916940D01*
X48246Y574761D02*
X99781D01*
X47697Y651510D02*
X48246Y650961D01*
D37*
X86692Y233349D02*
X90170Y236828D01*
X44094Y233349D02*
X86692D01*
X90170Y236828D02*
Y379141D01*
X87241Y382070D02*
X90170Y379141D01*
X59860Y382070D02*
X87241D01*
M02*
