G04*
G04 #@! TF.GenerationSoftware,Altium Limited,Altium Designer,26.3.0 (6)*
G04*
G04 Layer_Physical_Order=1*
G04 Layer_Color=255*
%FSLAX44Y44*%
%MOMM*%
G71*
G04*
G04 #@! TF.SameCoordinates,0408E89E-C53A-4377-B3AB-E061E58A1743*
G04*
G04*
G04 #@! TF.FilePolarity,Positive*
G04*
G01*
G75*
%ADD14C,2.4500*%
%ADD15R,2.4500X2.4500*%
%ADD18O,1.7926X1.3100*%
%ADD19O,1.7786X1.2960*%
%ADD20R,1.7926X1.3100*%
%ADD25O,1.7786X1.5500*%
%ADD26C,1.1000*%
%ADD27R,1.5500X1.5500*%
%ADD28C,1.5700*%
%ADD29R,1.5700X1.5700*%
%ADD30R,1.5240X1.5240*%
%ADD31C,1.5240*%
%ADD32O,2.5400X1.5080*%
%ADD33R,2.5400X1.5080*%
%ADD34O,3.0480X1.9800*%
%ADD35C,1.1500*%
D14*
X44450Y281950D02*
D03*
Y234950D02*
D03*
D15*
Y187950D02*
D03*
D18*
X1021810Y503116D02*
D03*
Y528516D02*
D03*
Y604716D02*
D03*
Y553916D02*
D03*
Y655516D02*
D03*
Y630116D02*
D03*
Y680916D02*
D03*
D19*
Y579316D02*
D03*
D20*
Y706316D02*
D03*
D25*
X59860Y357070D02*
D03*
D26*
X39860Y398070D02*
D03*
D27*
X59860Y382070D02*
D03*
D28*
X190500Y400050D02*
D03*
X124460Y916940D02*
D03*
D29*
X165100Y400050D02*
D03*
X99060Y916940D02*
D03*
D30*
X254000Y1097280D02*
D03*
D31*
X247029Y96430D02*
D03*
X913130Y750570D02*
D03*
Y476250D02*
D03*
X95250Y139700D02*
D03*
Y1055370D02*
D03*
D32*
X288290Y392430D02*
D03*
Y417830D02*
D03*
Y443230D02*
D03*
Y468630D02*
D03*
Y494030D02*
D03*
Y519430D02*
D03*
Y544830D02*
D03*
Y570230D02*
D03*
Y595630D02*
D03*
Y621030D02*
D03*
Y646430D02*
D03*
Y671830D02*
D03*
Y697230D02*
D03*
Y722630D02*
D03*
Y748030D02*
D03*
Y773430D02*
D03*
Y798830D02*
D03*
Y824230D02*
D03*
Y849630D02*
D03*
Y875030D02*
D03*
X440690D02*
D03*
Y849630D02*
D03*
Y824230D02*
D03*
Y798830D02*
D03*
Y773430D02*
D03*
Y748030D02*
D03*
Y722630D02*
D03*
Y697230D02*
D03*
Y671830D02*
D03*
Y646430D02*
D03*
Y621030D02*
D03*
Y595630D02*
D03*
Y570230D02*
D03*
Y544830D02*
D03*
Y519430D02*
D03*
Y494030D02*
D03*
Y468630D02*
D03*
Y443230D02*
D03*
Y417830D02*
D03*
D33*
Y392430D02*
D03*
D34*
X203200Y494030D02*
D03*
X50800D02*
D03*
Y621030D02*
D03*
X203200Y671830D02*
D03*
Y570230D02*
D03*
Y646430D02*
D03*
Y621030D02*
D03*
Y595630D02*
D03*
Y519430D02*
D03*
Y544830D02*
D03*
X50800Y671830D02*
D03*
Y646430D02*
D03*
Y519430D02*
D03*
Y544830D02*
D03*
Y570230D02*
D03*
Y595630D02*
D03*
D35*
X529590Y761130D02*
D03*
Y786130D02*
D03*
M02*
